<?xml version="1.0" encoding="utf-8"?>
<!-- Generator: Adobe Illustrator 19.0.0, SVG Export Plug-In . SVG Version: 6.00 Build 0)  -->
<svg version="1.1" id="Layer_1" xmlns="http://www.w3.org/2000/svg" xmlns:xlink="http://www.w3.org/1999/xlink" x="0px" y="0px"
	 viewBox="-627 1088.2 428.3 206.7" style="enable-background:new -627 1088.2 428.3 206.7;" xml:space="preserve">
<style type="text/css">
	.st0{fill:#C2C6C6;}
</style>
<g id="UOLBbz_1_">
	<g>
		<path class="st0" d="M-485,1167.6c13.8-8.3,26.9-13.5,39.2,0.5c3.4-1.9,6.4-4.3,9.8-5.3c5.2-1.6,10.7-3.5,15.9-3
			c12.3,1.1,18.5,8.6,18.7,21.1c0.2,13,0,26,0.2,39c0,3.4-1,4.7-4.6,4.7c-14.7,0.3-14.7,0.4-14.7-14.5c0-8,0.1-16,0-24
			c-0.1-7.8-4.3-11.2-11.9-9.7c-9,1.8-10,2.9-10,12.1c0,10.5-0.1,21,0.1,31.5c0.1,3.5-1.2,4.8-4.7,4.6c-3.3-0.2-6.7-0.2-10,0
			c-3.5,0.2-4.7-1.2-4.6-4.6c0.2-10.3,0.1-20.7,0-31c0-4.5,0.1-9.4-4.6-11.8c-5.3-2.7-10.5-0.7-15.1,2.1c-1.3,0.8-2,3.3-2,5.1
			c-0.2,11.7-0.3,23.3,0,35c0.1,4.2-1.4,5.4-5.5,5.4c-13.9-0.1-13.9,0.1-13.9-13.9c0-14.7,0.1-29.3-0.1-44c-0.1-4.1,1.3-5.9,5.4-5.4
			c0.8,0.1,1.7,0,2.5,0C-490.5,1161.4-485.3,1159.9-485,1167.6z"/>
		<path class="st0" d="M-383.9,1223.1c-4.7-8.4-4.3-10.1,4.5-19.9c-0.6-0.7-1.2-1.5-1.9-2.1c-7.8-6.3-9.7-14.6-7.6-23.8
			c2.3-9.8,9.2-14.9,18.8-17.1c6.4-1.4,12.5-0.8,18.7,1c1.8,0.5,4.5,0,6.2-1c5.7-3.4,11.6-4.6,18.6-3.5c-1.1,4.3-2.2,8.2-3.2,11.9
			c-3.2,0.2-5.9,0.4-9.1,0.6c1.4,3.7,2.8,6.4,3.4,9.2c3.5,15.1-6.4,28-22,29c-2.8,0.2-5.7-0.1-8.5,0.1c-1.4,0.1-2.8,1-4.2,1.5
			c0.9,1.8,1.3,4.6,2.7,5.2c3.6,1.5,7.6,2.2,11.5,3c5.2,1.1,10.5,1.7,15.6,3.1c6.1,1.7,11,5.1,12,11.9c1,7.1-1.8,12.8-7.6,16.8
			c-10,6.8-21.4,8-33,6.9c-4.9-0.5-9.8-1.9-14.4-3.7c-6.2-2.3-10.3-7.2-10.8-13.8c-0.4-6.4,3.3-10.9,8.8-14
			C-385,1224.2-384.6,1223.7-383.9,1223.1z M-361.2,1244.1c0.1-0.2,0.1-0.4,0.2-0.6c2.5-0.2,5,0,7.4-0.6c3.2-0.8,7.5-1.8,6.7-5.8
			c-0.4-2.2-3.9-4.7-6.5-5.4c-5.9-1.6-12.1-2-18-3.3c-3.7-0.8-5,1.1-5.6,3.8c-1,4.1,0.9,7.4,4.6,8.9
			C-369,1242.6-365,1243.2-361.2,1244.1z M-362.7,1173.5c-5.6,0-9.4,4.1-9.5,10c-0.1,5.9,4.7,10.9,10.2,10.8
			c5.4-0.2,9.4-4.5,9.4-10.2C-352.6,1177.8-356.7,1173.5-362.7,1173.5z"/>
		<path class="st0" d="M-266.4,1223.8c-8.6,2.1-13.2,1-17.1-3.3c-6.8,1.8-13.1,4.4-19.4,4.8c-10.4,0.6-18.5-6.7-20.4-16.8
			c-1.8-9.6,3.1-18.3,13.5-21.5c5.9-1.8,12.4-1.7,18.6-2.7c1.8-0.3,3.6-1.1,5.4-1.7c-0.9-2.2-1.4-5.8-2.9-6.3
			c-4.6-1.4-9.5-2.1-14.4-2.1c-3.4,0-6.7,1.6-10.6,2.6c-1.8-3.6-3.6-7.2-5.7-11.4c14-5.9,27.6-8.6,41.6-2.9
			c7.8,3.2,11.1,9.9,11.3,17.9c0.3,8.7,0.1,17.3,0.1,26C-266.4,1212.1-266.4,1217.7-266.4,1223.8z M-285.6,1202.4
			c0-6.8,0-6.8-5.2-6.8c-8.5,0-13.4,2.9-13.5,8c-0.1,4.3,3.7,7.5,8.8,7.6C-288.1,1211.3-285.6,1209-285.6,1202.4z"/>
		<path class="st0" d="M-538.7,1251c6.9-19.1,13.9-38.2,21.2-58.5c-20.8,7-40.8,13.7-60.8,20.5c-0.4-0.6-0.7-1.2-1.1-1.7
			c5.7-6.5,9.3-15,18.8-18.8c-9.3-3.9-13.1-12.3-18.8-19.1c0.4-0.5,0.8-1.1,1.1-1.6c20,6.7,40,13.5,60.8,20.5
			c-7.3-20.1-14.2-39.3-21.4-59c11.5,2.1,21.6,13.9,21.6,24.2c0,23.5-0.1,46.9,0.1,70.4c0,6.9-2.2,12.2-8.1,16
			c-4,2.6-7.7,5.5-11.6,8.3C-537.5,1251.8-538.1,1251.4-538.7,1251z"/>
	</g>
</g>
</svg>
